<svg id="art" viewBox="0 0 400 400" xmlns="http://www.w3.org/2000/svg">
  <ellipse cx="200" cy="366" rx="86" ry="14" fill="#000000" opacity="0.22"/>
  <g transform="translate(0,-4.32) rotate(2.86 200 250)">
    
  <g transform="translate(178,248) rotate(21.485507592510864) scale(1.0)" opacity="1.0">
    <path d="M -18,0 Q -23,58 -17,104 L -8,112 L -2,100 L 4,112 L 12,100 L 16,110 Q 23,58 18,0 Z"
          fill="#3a3a42" stroke="#0f130d" stroke-width="7" stroke-linejoin="round"/>
    <path d="M -18,0 Q -23,58 -17,104 L -6,108 Q -8,54 -6,0 Z" fill="#232329" opacity="0.6"/>
    <path d="M -10,40 L -16,52 M 8,60 L 15,70" stroke="#0f130d" stroke-width="3.5" stroke-linecap="round" opacity="0.6"/>
    <ellipse cx="0" cy="120" rx="24" ry="13" fill="#cabfa8" stroke="#0f130d" stroke-width="7"/>
    <path d="M -20,116 Q 0,124 20,116" fill="none" stroke="#a89c82" stroke-width="4" opacity="0.8"/>
    <ellipse cx="0" cy="126" rx="24" ry="6" fill="#3a0c10" opacity="0.55"/>
  </g>
    
  <g transform="translate(222,248) rotate(-21.48550759251086) scale(1.0)" opacity="1.0">
    <path d="M -18,0 Q -23,58 -17,104 L -8,112 L -2,100 L 4,112 L 12,100 L 16,110 Q 23,58 18,0 Z"
          fill="#3a3a42" stroke="#0f130d" stroke-width="7" stroke-linejoin="round"/>
    <path d="M -18,0 Q -23,58 -17,104 L -6,108 Q -8,54 -6,0 Z" fill="#232329" opacity="0.6"/>
    <path d="M -10,40 L -16,52 M 8,60 L 15,70" stroke="#0f130d" stroke-width="3.5" stroke-linecap="round" opacity="0.6"/>
    <ellipse cx="0" cy="120" rx="24" ry="13" fill="#cabfa8" stroke="#0f130d" stroke-width="7"/>
    <path d="M -20,116 Q 0,124 20,116" fill="none" stroke="#a89c82" stroke-width="4" opacity="0.8"/>
    <ellipse cx="0" cy="126" rx="24" ry="6" fill="#3a0c10" opacity="0.55"/>
  </g>
    
    <path d="M 158,150 Q 152,212 160,262 L 172,270 L 182,258 L 192,270 L 200,256
             L 208,270 L 218,258 L 228,270 L 240,262 Q 248,210 242,150 Q 200,130 158,150 Z"
          fill="#4a3038" stroke="#0f130d" stroke-width="8" stroke-linejoin="round"/>
    <path d="M 158,150 Q 152,212 160,262 L 172,270 L 182,258 L 192,270 L 200,256 Q 194,200 190,150 Z"
          fill="#2e1c22" opacity="0.4"/>
    <path d="M 222,150 Q 248,210 240,150 L 242,150 Q 248,210 240,262 L 228,270 L 218,258
             L 208,270 L 200,256 Q 210,200 222,150 Z" fill="#66424c" opacity="0.25"/>
    <!-- spine wound: a ragged torn opening (jagged edges, not a clean capsule, so it
         reads as ripped fabric/flesh rather than a seam) in bright blood-red so it
         pops against the dark shirt, with knobby offset-zigzag vertebrae instead of
         evenly-spaced circles (which read as buttons) -->
    <path d="M 190,154 L 182,166 L 187,180 L 180,196 L 186,214 L 181,232 L 188,250
             L 212,250 L 219,232 L 213,214 L 220,196 L 212,180 L 218,166 L 210,154
             Q 200,145 190,154 Z"
          fill="#3a0c10" stroke="#0f130d" stroke-width="6" stroke-linejoin="round"/>
    <path d="M 195,159 L 189,169 L 193,180 L 188,195 L 192,212 L 188,229 L 193,245
             L 207,245 L 212,229 L 208,212 L 212,195 L 207,180 L 211,169 L 205,159
             Q 200,153 195,159 Z"
          fill="#5a1418"/>
    <path d="M 200,168 L 205,175 L 200,183 L 195,175 Z" fill="#ded2b8" stroke="#0f130d" stroke-width="2.5" stroke-linejoin="round"/>
    <path d="M 203,190 L 209,196 L 203,204 L 198,197 Z" fill="#ded2b8" stroke="#0f130d" stroke-width="2.5" stroke-linejoin="round"/>
    <path d="M 197,211 L 202,218 L 196,225 L 191,218 Z" fill="#ded2b8" stroke="#0f130d" stroke-width="2.5" stroke-linejoin="round"/>
    <path d="M 203,231 L 208,237 L 202,244 L 197,237 Z" fill="#ded2b8" stroke="#0f130d" stroke-width="2.5" stroke-linejoin="round"/>
    <circle cx="176" cy="256" r="5" fill="#5a1418" opacity="0.7"/>
    <circle cx="224" cy="248" r="4" fill="#5a1418" opacity="0.6"/>
    <path d="M 186,126 Q 184,142 188,154 L 212,154 Q 216,142 214,126 Z"
          fill="#4a6247" stroke="#0f130d" stroke-width="6" stroke-linejoin="round"/>
    
    <g transform="translate(200,93)">
      <path d="M 0,-58 Q 40,-56 52,-18 Q 58,10 40,34 Q 20,52 0,52 Q -20,52 -40,34
               Q -58,10 -52,-18 Q -40,-56 0,-58 Z"
            fill="#6a8462" stroke="#0f130d" stroke-width="8" stroke-linejoin="round"/>
      <path d="M -42,10 Q -52,30 -30,40 Q -46,20 -42,10 Z" fill="#4a6247" opacity="0.5"/>
      <path d="M 40,10 Q 52,30 30,40 Q 46,20 40,10 Z" fill="#4a6247" opacity="0.5"/>
      <circle cx="-48" cy="12" r="9" fill="#6a8462" stroke="#0f130d" stroke-width="6"/>
      <circle cx="48" cy="12" r="9" fill="#6a8462" stroke="#0f130d" stroke-width="6"/>
      <!-- big matted hair mass covering crown/back, with one torn bald wound showing through -->
      <path d="M -54,-4 Q -60,-52 0,-60 Q 60,-52 54,-4 Q 50,18 38,28
               Q 46,-2 30,-14 Q 40,10 22,10 Q 34,-10 14,-20 Q 26,4 6,0
               Q -6,-2 -18,-14 Q -10,4 -26,4 Q -12,-16 -30,-16 Q -46,-14 -50,4
               Q -54,-2 -54,-4 Z"
            fill="#1c1a1a" stroke="#0f130d" stroke-width="7" stroke-linejoin="round"/>
      <!-- bald scalp wound: bare skin patch with a single jagged gash (not a crossed
           "X" — one continuous crack reads as a wound, two crossing lines read as an
           icon) -->
      <path d="M -6,-30 Q 8,-34 14,-20 Q 8,-8 -8,-10 Q -18,-16 -6,-30 Z"
            fill="#5c5470" stroke="#0f130d" stroke-width="5" stroke-linejoin="round"/>
      <path d="M -10,-24 L -2,-22 L -4,-16 L 4,-15" stroke="#5a1418" stroke-width="3" stroke-linecap="round" stroke-linejoin="round" fill="none" opacity="0.9"/>
    </g>
    
  <g transform="translate(163,172) rotate(56.27053130866377) scale(1.0)" opacity="1.0">
    <path d="M -15,0 Q -19,42 -13,80 L 13,80 Q 19,42 15,0 Z"
          fill="#6a8462" stroke="#0f130d" stroke-width="7" stroke-linejoin="round"/>
    <path d="M -15,0 Q -19,42 -13,80 L 0,80 Q -3,42 -3,0 Z" fill="#4a6247" opacity="0.55"/>
    <path d="M -14,18 L -6,24 M 10,34 L 17,40" stroke="#0f130d" stroke-width="3" stroke-linecap="round" opacity="0.55"/>
    <path d="M -15,4 L -22,-2 L -14,10 L -19,-6 L -11,12" fill="none" stroke="#0f130d" stroke-width="4" stroke-linecap="round" opacity="0.7"/>
    <g transform="translate(0,84)">
      <circle cx="0" cy="0" r="13" fill="#4a6247" stroke="#0f130d" stroke-width="7"/>
      <path d="M -10,4 L -18,16 M -2,10 L -4,22 M 6,9 L 10,20 M 12,2 L 22,10"
            fill="none" stroke="#0f130d" stroke-width="8" stroke-linecap="round"/>
      <path d="M -10,4 L -18,16 M -2,10 L -4,22 M 6,9 L 10,20 M 12,2 L 22,10"
            fill="none" stroke="#ded2b8" stroke-width="4" stroke-linecap="round"/>
    </g>
  </g>
    
  <g transform="translate(237,172) rotate(-67.72946869133622) scale(1.0)" opacity="1.0">
    <path d="M -15,0 Q -19,42 -13,80 L 13,80 Q 19,42 15,0 Z"
          fill="#6a8462" stroke="#0f130d" stroke-width="7" stroke-linejoin="round"/>
    <path d="M -15,0 Q -19,42 -13,80 L 0,80 Q -3,42 -3,0 Z" fill="#4a6247" opacity="0.55"/>
    <path d="M -14,18 L -6,24 M 10,34 L 17,40" stroke="#0f130d" stroke-width="3" stroke-linecap="round" opacity="0.55"/>
    <path d="M -15,4 L -22,-2 L -14,10 L -19,-6 L -11,12" fill="none" stroke="#0f130d" stroke-width="4" stroke-linecap="round" opacity="0.7"/>
    <g transform="translate(0,84)">
      <circle cx="0" cy="0" r="13" fill="#4a6247" stroke="#0f130d" stroke-width="7"/>
      <path d="M -10,4 L -18,16 M -2,10 L -4,22 M 6,9 L 10,20 M 12,2 L 22,10"
            fill="none" stroke="#0f130d" stroke-width="8" stroke-linecap="round"/>
      <path d="M -10,4 L -18,16 M -2,10 L -4,22 M 6,9 L 10,20 M 12,2 L 22,10"
            fill="none" stroke="#ded2b8" stroke-width="4" stroke-linecap="round"/>
    </g>
  </g>
  </g>
</svg>