<svg id="art" viewBox="0 0 400 400" xmlns="http://www.w3.org/2000/svg">
  <ellipse cx="200" cy="366" rx="86" ry="14" fill="#000000" opacity="0.22"/>
  <g transform="translate(0,-4.32) rotate(-2.86 200 250)">
    
  <g transform="translate(178,248) rotate(-21.48550759251086) scale(1.0,1.0)" opacity="1.0">
    <path d="M -18,0 Q -23,58 -17,104 L -8,112 L -2,100 L 4,112 L 12,100 L 16,110 Q 23,58 18,0 Z"
          fill="#3a3a42" stroke="#0f130d" stroke-width="7" stroke-linejoin="round"/>
    <path d="M -18,0 Q -23,58 -17,104 L -6,108 Q -8,54 -6,0 Z" fill="#232329" opacity="0.6"/>
    <path d="M -10,40 L -16,52 M 8,60 L 15,70" stroke="#0f130d" stroke-width="3.5" stroke-linecap="round" opacity="0.6"/>
    <ellipse cx="0" cy="120" rx="24" ry="13" fill="#cabfa8" stroke="#0f130d" stroke-width="7"/>
    <path d="M -20,116 Q 0,124 20,116" fill="none" stroke="#a89c82" stroke-width="4" opacity="0.8"/>
    <ellipse cx="0" cy="126" rx="24" ry="6" fill="#3a0c10" opacity="0.55"/>
  </g>
    
  <g transform="translate(222,248) rotate(21.485507592510857) scale(1.0,0.7136)" opacity="1.0">
    <path d="M -18,0 Q -23,58 -17,104 L -8,112 L -2,100 L 4,112 L 12,100 L 16,110 Q 23,58 18,0 Z"
          fill="#3a3a42" stroke="#0f130d" stroke-width="7" stroke-linejoin="round"/>
    <path d="M -18,0 Q -23,58 -17,104 L -6,108 Q -8,54 -6,0 Z" fill="#232329" opacity="0.6"/>
    <path d="M -10,40 L -16,52 M 8,60 L 15,70" stroke="#0f130d" stroke-width="3.5" stroke-linecap="round" opacity="0.6"/>
    <ellipse cx="0" cy="120" rx="24" ry="13" fill="#cabfa8" stroke="#0f130d" stroke-width="7"/>
    <path d="M -20,116 Q 0,124 20,116" fill="none" stroke="#a89c82" stroke-width="4" opacity="0.8"/>
    <ellipse cx="0" cy="126" rx="24" ry="6" fill="#3a0c10" opacity="0.55"/>
  </g>
    
    <path d="M 158,150 Q 152,212 160,262 L 172,270 L 182,258 L 192,270 L 200,256
             L 208,270 L 218,258 L 228,270 L 240,262 Q 248,210 242,150 Q 200,130 158,150 Z"
          fill="#4a3038" stroke="#0f130d" stroke-width="8" stroke-linejoin="round"/>
    <path d="M 158,150 Q 152,212 160,262 L 172,270 L 182,258 L 192,270 L 200,256 Q 194,200 190,150 Z"
          fill="#66424c" opacity="0.35"/>
    <path d="M 222,150 Q 248,210 240,150 L 242,150 Q 248,210 240,262 L 228,270 L 218,258
             L 208,270 L 200,256 Q 210,200 222,150 Z" fill="#2e1c22" opacity="0.55"/>
    <path d="M 196,168 Q 178,178 182,204 Q 186,224 208,230 Q 224,224 220,200 Q 216,176 196,168 Z"
          fill="#3a0c10" stroke="#0f130d" stroke-width="5" stroke-linejoin="round"/>
    <path d="M 190,186 L 212,182 M 189,198 L 213,196 M 192,212 L 210,212"
          fill="none" stroke="#ded2b8" stroke-width="4" stroke-linecap="round" opacity="0.85"/>
    <path d="M 196,168 Q 178,178 182,204" fill="none" stroke="#5a1418" stroke-width="4" opacity="0.7"/>
    <circle cx="172" cy="240" r="5" fill="#5a1418" opacity="0.7"/>
    <circle cx="225" cy="248" r="4" fill="#5a1418" opacity="0.6"/>
    <path d="M 208,232 Q 206,246 210,258" stroke="#5a1418" stroke-width="4" fill="none" opacity="0.65" stroke-linecap="round"/>
    <path d="M 186,126 Q 184,142 188,154 L 212,154 Q 216,142 214,126 Z"
          fill="#4a6247" stroke="#0f130d" stroke-width="6" stroke-linejoin="round"/>
    
    <g transform="translate(200,93)">
      <path d="M 0,-58 Q 40,-56 52,-18 Q 58,10 40,34 Q 20,52 0,52 Q -20,52 -40,34
               Q -58,10 -52,-18 Q -40,-56 0,-58 Z"
            fill="#6a8462" stroke="#0f130d" stroke-width="8" stroke-linejoin="round"/>
      <path d="M -42,-4 Q -50,18 -32,28 Q -44,6 -42,-4 Z" fill="#4a6247" opacity="0.55"/>
      <path d="M -18,28 Q 0,46 24,32 Q 20,50 -4,48 Q -22,44 -18,28 Z" fill="#4a6247" opacity="0.5"/>
      <path d="M 26,-28 Q 42,-24 40,-8 Q 32,-4 24,-14 Q 20,-24 26,-28 Z" fill="#5c5470" opacity="0.55"/>
      <path d="M -4,-40 Q 8,-42 10,-32 Q 2,-28 -6,-34 Z" fill="#5c5470" opacity="0.4"/>
      <circle cx="20" cy="-24" r="16" fill="#8aa480" opacity="0.2"/>
      <circle cx="-48" cy="10" r="10" fill="#6a8462" stroke="#0f130d" stroke-width="6"/>
      <circle cx="-48" cy="10" r="4" fill="#4a6247"/>
      <path d="M -46,-30 Q -50,-48 -30,-52 Q -38,-38 -30,-30 Q -42,-30 -46,-30 Z"
            fill="#1c1a1a" stroke="#0f130d" stroke-width="6" stroke-linejoin="round"/>
      <path d="M -22,-48 Q -20,-60 -2,-58 Q -8,-46 -2,-38 Q -16,-40 -22,-48 Z"
            fill="#1c1a1a" stroke="#0f130d" stroke-width="6" stroke-linejoin="round"/>
      <path d="M 14,-54 Q 26,-58 36,-46 Q 26,-42 20,-46 Q 10,-46 14,-54 Z"
            fill="#1c1a1a" stroke="#0f130d" stroke-width="6" stroke-linejoin="round"/>
      <path d="M 34,-32 Q 46,-30 44,-16 Q 34,-16 30,-24 Q 28,-32 34,-32 Z"
            fill="#1c1a1a" stroke="#0f130d" stroke-width="6" stroke-linejoin="round"/>
      <path d="M -6,-44 Q 4,-40 2,-30" fill="none" stroke="#5a1418" stroke-width="3" stroke-linecap="round" opacity="0.85"/>
      <path d="M -30,-2 Q -20,-14 -8,-4 Q -14,8 -26,10 Q -32,4 -30,-2 Z"
            fill="#3a0c10" stroke="#0f130d" stroke-width="5" stroke-linejoin="round"/>
      <circle cx="-19" cy="1" r="3" fill="#8fae86" opacity="0.8"/>
      <ellipse cx="20" cy="2" rx="12" ry="14" fill="#e8ddc0" stroke="#0f130d" stroke-width="5"/>
      <path d="M 10,-4 Q 14,4 10,10 M 30,-4 Q 26,4 30,10 M 14,-8 Q 20,-2 26,-8"
            fill="none" stroke="#5a1418" stroke-width="1.6" opacity="0.85"/>
      <circle cx="21" cy="3" r="5" fill="#241a0c"/>
      <circle cx="19" cy="1" r="1.6" fill="#f4ecd8"/>
      <path d="M -34,-18 L -6,-22" stroke="#0f130d" stroke-width="5" stroke-linecap="round"/>
      <path d="M -22,28 Q -4,52 22,26 Q 18,44 -2,46 Q -18,44 -22,28 Z"
            fill="#3a0c10" stroke="#0f130d" stroke-width="6" stroke-linejoin="round"/>
      <path d="M -16,29 L -13,37 L -9,29 L -5,38 L 0,29 L 5,38 L 9,29 L 13,36 L 17,28"
            fill="#ded2b8" stroke="#0f130d" stroke-width="2.5" stroke-linejoin="round"/>
      <path d="M 30,14 Q 42,10 46,20 Q 42,28 32,26 Q 26,20 30,14 Z"
            fill="#3a0c10" stroke="#0f130d" stroke-width="4" stroke-linejoin="round"/>
      <path d="M 34,17 L 42,19" stroke="#ded2b8" stroke-width="2.5" opacity="0.85"/>
    </g>
    
  <g transform="translate(163,172) rotate(67.72946869133622) scale(1.0)" opacity="1.0">
    <path d="M -15,0 Q -19,42 -13,80 L 13,80 Q 19,42 15,0 Z"
          fill="#6a8462" stroke="#0f130d" stroke-width="7" stroke-linejoin="round"/>
    <path d="M -15,0 Q -19,42 -13,80 L 0,80 Q -3,42 -3,0 Z" fill="#4a6247" opacity="0.55"/>
    <path d="M -14,18 L -6,24 M 10,34 L 17,40" stroke="#0f130d" stroke-width="3" stroke-linecap="round" opacity="0.55"/>
    <path d="M -15,4 L -22,-2 L -14,10 L -19,-6 L -11,12" fill="none" stroke="#0f130d" stroke-width="4" stroke-linecap="round" opacity="0.7"/>
    <g transform="translate(0,84)">
      <circle cx="0" cy="0" r="13" fill="#4a6247" stroke="#0f130d" stroke-width="7"/>
      <path d="M -10,4 L -18,16 M -2,10 L -4,22 M 6,9 L 10,20 M 12,2 L 22,10"
            fill="none" stroke="#0f130d" stroke-width="8" stroke-linecap="round"/>
      <path d="M -10,4 L -18,16 M -2,10 L -4,22 M 6,9 L 10,20 M 12,2 L 22,10"
            fill="none" stroke="#ded2b8" stroke-width="4" stroke-linecap="round"/>
    </g>
  </g>
    
  <g transform="translate(237,172) rotate(-56.27053130866377) scale(1.0)" opacity="1.0">
    <path d="M -15,0 Q -19,42 -13,80 L 13,80 Q 19,42 15,0 Z"
          fill="#6a8462" stroke="#0f130d" stroke-width="7" stroke-linejoin="round"/>
    <path d="M -15,0 Q -19,42 -13,80 L 0,80 Q -3,42 -3,0 Z" fill="#4a6247" opacity="0.55"/>
    <path d="M -14,18 L -6,24 M 10,34 L 17,40" stroke="#0f130d" stroke-width="3" stroke-linecap="round" opacity="0.55"/>
    <path d="M -15,4 L -22,-2 L -14,10 L -19,-6 L -11,12" fill="none" stroke="#0f130d" stroke-width="4" stroke-linecap="round" opacity="0.7"/>
    <g transform="translate(0,84)">
      <circle cx="0" cy="0" r="13" fill="#4a6247" stroke="#0f130d" stroke-width="7"/>
      <path d="M -10,4 L -18,16 M -2,10 L -4,22 M 6,9 L 10,20 M 12,2 L 22,10"
            fill="none" stroke="#0f130d" stroke-width="8" stroke-linecap="round"/>
      <path d="M -10,4 L -18,16 M -2,10 L -4,22 M 6,9 L 10,20 M 12,2 L 22,10"
            fill="none" stroke="#ded2b8" stroke-width="4" stroke-linecap="round"/>
    </g>
  </g>
  </g>
</svg>