<svg id="art" viewBox="0 0 400 400" xmlns="http://www.w3.org/2000/svg">
  <ellipse cx="196" cy="366" rx="82" ry="14" fill="#000000" opacity="0.22"/>
  <g transform="translate(0,-3.46) rotate(5.85 200 260)">
    
  <g transform="translate(193,244) rotate(24.350241938178968) scale(0.88)" opacity="0.6">
    <path d="M -18,0 Q -23,58 -17,104 L -8,112 L -2,100 L 4,112 L 12,100 L 16,110 Q 23,58 18,0 Z"
          fill="#3a3a42" stroke="#0f130d" stroke-width="7" stroke-linejoin="round"/>
    <path d="M -18,0 Q -23,58 -17,104 L -6,108 Q -8,54 -6,0 Z" fill="#232329" opacity="0.6"/>
    <path d="M -10,40 L -16,52 M 8,60 L 15,70" stroke="#0f130d" stroke-width="3.5" stroke-linecap="round" opacity="0.6"/>
    <ellipse cx="0" cy="120" rx="24" ry="13" fill="#cabfa8" stroke="#0f130d" stroke-width="7"/>
    <path d="M -20,116 Q 0,124 20,116" fill="none" stroke="#a89c82" stroke-width="4" opacity="0.8"/>
    <ellipse cx="0" cy="126" rx="24" ry="6" fill="#3a0c10" opacity="0.55"/>
  </g>
    
  <g transform="translate(198,172) rotate(-47.891304555506515) scale(0.88)" opacity="0.6">
    <path d="M -15,0 Q -19,42 -13,80 L 13,80 Q 19,42 15,0 Z"
          fill="#6a8462" stroke="#0f130d" stroke-width="7" stroke-linejoin="round"/>
    <path d="M -15,0 Q -19,42 -13,80 L 0,80 Q -3,42 -3,0 Z" fill="#4a6247" opacity="0.55"/>
    <path d="M -14,18 L -6,24 M 10,34 L 17,40" stroke="#0f130d" stroke-width="3" stroke-linecap="round" opacity="0.55"/>
    <path d="M -15,4 L -22,-2 L -14,10 L -19,-6 L -11,12" fill="none" stroke="#0f130d" stroke-width="4" stroke-linecap="round" opacity="0.7"/>
    <g transform="translate(0,84)">
      <circle cx="0" cy="0" r="13" fill="#4a6247" stroke="#0f130d" stroke-width="7"/>
      <path d="M -10,4 L -18,16 M -2,10 L -4,22 M 6,9 L 10,20 M 12,2 L 22,10"
            fill="none" stroke="#0f130d" stroke-width="8" stroke-linecap="round"/>
      <path d="M -10,4 L -18,16 M -2,10 L -4,22 M 6,9 L 10,20 M 12,2 L 22,10"
            fill="none" stroke="#ded2b8" stroke-width="4" stroke-linecap="round"/>
    </g>
  </g>
    
    <path d="M 176,152 Q 164,214 172,264 L 184,272 L 196,258 L 210,270 L 224,258
             Q 236,212 226,152 Q 200,132 176,152 Z"
          fill="#4a3038" stroke="#0f130d" stroke-width="8" stroke-linejoin="round"/>
    <path d="M 176,152 Q 164,214 172,264 L 184,272 L 196,258 Q 190,204 188,152 Z"
          fill="#66424c" opacity="0.3"/>
    <path d="M 210,152 Q 236,212 226,152 L 226,152 Q 236,212 224,258 L 210,270 L 200,258
             Q 208,204 210,152 Z" fill="#2e1c22" opacity="0.5"/>
    <path d="M 188,172 Q 174,182 178,206 Q 182,224 200,228 Q 214,222 210,200 Q 206,178 188,172 Z"
          fill="#3a0c10" stroke="#0f130d" stroke-width="5" stroke-linejoin="round"/>
    <path d="M 182,188 L 202,184 M 181,200 L 203,198"
          fill="none" stroke="#ded2b8" stroke-width="4" stroke-linecap="round" opacity="0.85"/>
    <circle cx="180" cy="242" r="4.5" fill="#5a1418" opacity="0.65"/>
    <path d="M 200,230 Q 198,244 202,256" stroke="#5a1418" stroke-width="3.5" fill="none" opacity="0.6" stroke-linecap="round"/>
    <path d="M 190,128 Q 188,144 192,156 L 208,156 Q 212,144 210,128 Z"
          fill="#4a6247" stroke="#0f130d" stroke-width="6" stroke-linejoin="round"/>
    
    <g transform="translate(198,88)">
      <path d="M 20,-54 Q -18,-56 -40,-30 Q -52,-10 -44,14 Q -38,28 -46,34
               Q -30,36 -22,26 Q -14,40 4,42 Q 26,40 34,20 Q 44,6 40,-16 Q 36,-42 20,-54 Z"
            fill="#6a8462" stroke="#0f130d" stroke-width="8" stroke-linejoin="round"/>
      <!-- jaw/cheek hollow -->
      <path d="M -4,10 Q -14,26 -2,38 Q -18,30 -18,14 Q -12,4 -4,10 Z" fill="#4a6247" opacity="0.5"/>
      <path d="M 30,-30 Q 42,-24 38,-6 Q 30,-4 26,-16 Q 24,-26 30,-30 Z" fill="#5c5470" opacity="0.5"/>
      <circle cx="30" cy="4" r="10" fill="#6a8462" stroke="#0f130d" stroke-width="6"/>
      <circle cx="30" cy="4" r="4" fill="#4a6247"/>
      <!-- hair: crown + back tufts only (front of face stays bare/gaunt) -->
      <path d="M 16,-50 Q -16,-52 -34,-32 Q -20,-40 -6,-40 Q -18,-32 -14,-24
               Q 0,-38 16,-36 Q 6,-28 12,-20 Q 22,-30 30,-24 Q 34,-14 24,-10
               Q 36,-14 38,-28 Q 38,-44 16,-50 Z"
            fill="#1c1a1a" stroke="#0f130d" stroke-width="6" stroke-linejoin="round"/>
      <path d="M 6,-40 Q 12,-34 6,-30" fill="none" stroke="#5a1418" stroke-width="2.5" opacity="0.8"/>
      <!-- brow -->
      <path d="M -32,-14 L -10,-18" stroke="#0f130d" stroke-width="5" stroke-linecap="round"/>
      <!-- eye: bloodshot, forward-looking -->
      <ellipse cx="-18" cy="-2" rx="11" ry="10" fill="#e8ddc0" stroke="#0f130d" stroke-width="5"/>
      <path d="M -26,-6 Q -22,0 -26,4 M -8,-6 Q -12,0 -8,4" fill="none" stroke="#5a1418" stroke-width="1.5" opacity="0.85"/>
      <circle cx="-18" cy="-1" r="4.5" fill="#241a0c"/>
      <circle cx="-19.5" cy="-2.5" r="1.4" fill="#f4ecd8"/>
      <!-- open jaw in profile, jagged teeth -->
      <path d="M -40,10 Q -48,24 -34,34 Q -16,42 0,36 Q -10,36 -20,28 Q -32,20 -40,10 Z"
            fill="#3a0c10" stroke="#0f130d" stroke-width="6" stroke-linejoin="round"/>
      <path d="M -38,14 L -32,17 L -34,22 L -26,23 L -28,29 L -18,30"
            fill="#ded2b8" stroke="#0f130d" stroke-width="2.2" stroke-linejoin="round"/>
      <!-- cheek wound -->
      <path d="M 6,18 Q 18,16 20,26 Q 14,32 4,28 Q 0,22 6,18 Z"
            fill="#3a0c10" stroke="#0f130d" stroke-width="4" stroke-linejoin="round"/>
    </g>
    
  <g transform="translate(203,250) rotate(-24.35024193817897) scale(1.0)" opacity="1.0">
    <path d="M -18,0 Q -23,58 -17,104 L -8,112 L -2,100 L 4,112 L 12,100 L 16,110 Q 23,58 18,0 Z"
          fill="#3a3a42" stroke="#0f130d" stroke-width="7" stroke-linejoin="round"/>
    <path d="M -18,0 Q -23,58 -17,104 L -6,108 Q -8,54 -6,0 Z" fill="#232329" opacity="0.6"/>
    <path d="M -10,40 L -16,52 M 8,60 L 15,70" stroke="#0f130d" stroke-width="3.5" stroke-linecap="round" opacity="0.6"/>
    <ellipse cx="0" cy="120" rx="24" ry="13" fill="#cabfa8" stroke="#0f130d" stroke-width="7"/>
    <path d="M -20,116 Q 0,124 20,116" fill="none" stroke="#a89c82" stroke-width="4" opacity="0.8"/>
    <ellipse cx="0" cy="126" rx="24" ry="6" fill="#3a0c10" opacity="0.55"/>
  </g>
    
  <g transform="translate(188,178) rotate(-34.24396109882537) scale(1.0)" opacity="1.0">
    <path d="M -15,0 Q -19,42 -13,80 L 13,80 Q 19,42 15,0 Z"
          fill="#6a8462" stroke="#0f130d" stroke-width="7" stroke-linejoin="round"/>
    <path d="M -15,0 Q -19,42 -13,80 L 0,80 Q -3,42 -3,0 Z" fill="#4a6247" opacity="0.55"/>
    <path d="M -14,18 L -6,24 M 10,34 L 17,40" stroke="#0f130d" stroke-width="3" stroke-linecap="round" opacity="0.55"/>
    <path d="M -15,4 L -22,-2 L -14,10 L -19,-6 L -11,12" fill="none" stroke="#0f130d" stroke-width="4" stroke-linecap="round" opacity="0.7"/>
    <g transform="translate(0,84)">
      <circle cx="0" cy="0" r="13" fill="#4a6247" stroke="#0f130d" stroke-width="7"/>
      <path d="M -10,4 L -18,16 M -2,10 L -4,22 M 6,9 L 10,20 M 12,2 L 22,10"
            fill="none" stroke="#0f130d" stroke-width="8" stroke-linecap="round"/>
      <path d="M -10,4 L -18,16 M -2,10 L -4,22 M 6,9 L 10,20 M 12,2 L 22,10"
            fill="none" stroke="#ded2b8" stroke-width="4" stroke-linecap="round"/>
    </g>
  </g>
  </g>
</svg>